<svg id="visual" viewBox="0 0 960 540" width="960" height="540" xmlns="http://www.w3.org/2000/svg" xmlns:xlink="http://www.w3.org/1999/xlink" version="1.1"><rect x="0" y="0" width="960" height="540" fill="#181d31"></rect><path d="M0 323L22.8 325.3C45.7 327.7 91.3 332.3 137 339.3C182.7 346.3 228.3 355.7 274 363.3C319.7 371 365.3 377 411.2 369.3C457 361.7 503 340.3 548.8 342.3C594.7 344.3 640.3 369.7 686 373.5C731.7 377.3 777.3 359.7 823 355.5C868.7 351.3 914.3 360.7 937.2 365.3L960 370L960 541L937.2 541C914.3 541 868.7 541 823 541C777.3 541 731.7 541 686 541C640.3 541 594.7 541 548.8 541C503 541 457 541 411.2 541C365.3 541 319.7 541 274 541C228.3 541 182.7 541 137 541C91.3 541 45.7 541 22.8 541L0 541Z" fill="#055592"></path><path d="M0 377L22.8 378.2C45.7 379.3 91.3 381.7 137 383.5C182.7 385.3 228.3 386.7 274 392.5C319.7 398.3 365.3 408.7 411.2 409.7C457 410.7 503 402.3 548.8 395.8C594.7 389.3 640.3 384.7 686 387.3C731.7 390 777.3 400 823 407.3C868.7 414.7 914.3 419.3 937.2 421.7L960 424L960 541L937.2 541C914.3 541 868.7 541 823 541C777.3 541 731.7 541 686 541C640.3 541 594.7 541 548.8 541C503 541 457 541 411.2 541C365.3 541 319.7 541 274 541C228.3 541 182.7 541 137 541C91.3 541 45.7 541 22.8 541L0 541Z" fill="#007eb7"></path><path d="M0 440L22.8 441.8C45.7 443.7 91.3 447.3 137 449.5C182.7 451.7 228.3 452.3 274 444.5C319.7 436.7 365.3 420.3 411.2 413C457 405.7 503 407.3 548.8 414.2C594.7 421 640.3 433 686 438C731.7 443 777.3 441 823 441.8C868.7 442.7 914.3 446.3 937.2 448.2L960 450L960 541L937.2 541C914.3 541 868.7 541 823 541C777.3 541 731.7 541 686 541C640.3 541 594.7 541 548.8 541C503 541 457 541 411.2 541C365.3 541 319.7 541 274 541C228.3 541 182.7 541 137 541C91.3 541 45.7 541 22.8 541L0 541Z" fill="#00a9d7"></path><path d="M0 464L22.8 463.5C45.7 463 91.3 462 137 464C182.7 466 228.3 471 274 473.2C319.7 475.3 365.3 474.7 411.2 476.2C457 477.7 503 481.3 548.8 476.7C594.7 472 640.3 459 686 451C731.7 443 777.3 440 823 441.3C868.7 442.7 914.3 448.3 937.2 451.2L960 454L960 541L937.2 541C914.3 541 868.7 541 823 541C777.3 541 731.7 541 686 541C640.3 541 594.7 541 548.8 541C503 541 457 541 411.2 541C365.3 541 319.7 541 274 541C228.3 541 182.7 541 137 541C91.3 541 45.7 541 22.8 541L0 541Z" fill="#12d4f0"></path><path d="M0 510L22.8 509C45.7 508 91.3 506 137 501.5C182.7 497 228.3 490 274 485.5C319.7 481 365.3 479 411.2 483.8C457 488.7 503 500.3 548.8 504.5C594.7 508.7 640.3 505.3 686 500C731.7 494.7 777.3 487.3 823 484C868.7 480.7 914.3 481.3 937.2 481.7L960 482L960 541L937.2 541C914.3 541 868.7 541 823 541C777.3 541 731.7 541 686 541C640.3 541 594.7 541 548.8 541C503 541 457 541 411.2 541C365.3 541 319.7 541 274 541C228.3 541 182.7 541 137 541C91.3 541 45.7 541 22.8 541L0 541Z" fill="#55ffff"></path></svg>